<mxfile host="65bd71144e">
    <diagram id="jIqGEkekAhwi5qpn3fcP" name="OAuth 2.0 Authorization Code Grant">
        <mxGraphModel dx="840" dy="811" grid="1" gridSize="10" guides="1" tooltips="1" connect="1" arrows="1" fold="1" page="1" pageScale="1" pageWidth="850" pageHeight="1100" background="#FFFFFF" math="0" shadow="0">
            <root>
                <mxCell id="0"/>
                <mxCell id="1" parent="0"/>
            </root>
        </mxGraphModel>
    </diagram>
</mxfile>